<svg width="18" height="16" viewBox="0 0 18 16" fill="none" xmlns="http://www.w3.org/2000/svg">
<path fill-rule="evenodd" clip-rule="evenodd" d="M7.2864 0.708008H10.7138C12.2452 0.707995 13.4583 0.707984 14.4076 0.83562C15.3846 0.966977 16.1754 1.24374 16.799 1.86738C17.4227 2.49101 17.6994 3.2818 17.8308 4.25882C17.9062 4.81955 17.937 5.47226 17.9497 6.22824C17.9554 6.2623 17.9584 6.29731 17.9584 6.33301C17.9584 6.36239 17.9564 6.39129 17.9525 6.41959C17.9584 6.89103 17.9584 7.4012 17.9584 7.95267V7.99968C17.9584 8.34485 17.6786 8.62468 17.3334 8.62468C16.9882 8.62468 16.7084 8.34485 16.7084 7.99968C16.7084 7.62809 16.7083 7.28167 16.7068 6.95801H1.2934C1.29182 7.28167 1.29175 7.62809 1.29175 7.99968C1.29175 9.58869 1.29308 10.7176 1.40821 11.574C1.52094 12.4124 1.73233 12.8954 2.085 13.2481C2.43768 13.6008 2.92071 13.8122 3.75912 13.9249C4.61551 14.04 5.7444 14.0413 7.33341 14.0413H10.6667C11.0119 14.0413 11.2917 14.3212 11.2917 14.6663C11.2917 15.0115 11.0119 15.2913 10.6667 15.2913H7.28641C5.75494 15.2914 4.54191 15.2914 3.59256 15.1637C2.61554 15.0324 1.82475 14.7556 1.20112 14.132C0.577482 13.5083 0.300717 12.7175 0.169361 11.7405C0.0417246 10.7912 0.0417351 9.57816 0.0417483 8.04669V7.95266C0.0417435 7.40119 0.0417392 6.89102 0.047695 6.41957C0.0437748 6.39128 0.0417486 6.36238 0.0417486 6.33301C0.0417486 6.29731 0.0447413 6.26231 0.0504893 6.22825C0.0631163 5.47226 0.093973 4.81955 0.169361 4.25882C0.300717 3.2818 0.577482 2.49101 1.20112 1.86738C1.82475 1.24374 2.61554 0.966977 3.59256 0.83562C4.54191 0.707984 5.75493 0.707995 7.2864 0.708008ZM1.31348 5.70801H16.6867C16.6704 5.21907 16.6419 4.79662 16.5919 4.42538C16.4792 3.58697 16.2678 3.10394 15.9152 2.75126C15.5625 2.39859 15.0794 2.18719 14.241 2.07447C13.3847 1.95934 12.2558 1.95801 10.6667 1.95801H7.33342C5.7444 1.95801 4.61551 1.95934 3.75912 2.07447C2.92071 2.18719 2.43768 2.39859 2.085 2.75126C1.73233 3.10394 1.52094 3.58697 1.40821 4.42538C1.3583 4.79662 1.32978 5.21907 1.31348 5.70801ZM14.8334 9.04134C15.1786 9.04134 15.4584 9.32116 15.4584 9.66634V13.1575L16.0581 12.5577C16.3022 12.3137 16.6979 12.3137 16.942 12.5577C17.1861 12.8018 17.1861 13.1975 16.942 13.4416L15.2754 15.1083C15.0313 15.3524 14.6356 15.3524 14.3915 15.1083L12.7248 13.4416C12.4807 13.1975 12.4807 12.8018 12.7248 12.5577C12.9689 12.3137 13.3646 12.3137 13.6087 12.5577L14.2084 13.1575V9.66634C14.2084 9.32116 14.4882 9.04134 14.8334 9.04134ZM3.37508 11.333C3.37508 10.9878 3.6549 10.708 4.00008 10.708H7.33342C7.67859 10.708 7.95842 10.9878 7.95842 11.333C7.95842 11.6782 7.67859 11.958 7.33342 11.958H4.00008C3.6549 11.958 3.37508 11.6782 3.37508 11.333ZM8.79175 11.333C8.79175 10.9878 9.07157 10.708 9.41675 10.708H9.83342C10.1786 10.708 10.4584 10.9878 10.4584 11.333C10.4584 11.6782 10.1786 11.958 9.83342 11.958H9.41675C9.07157 11.958 8.79175 11.6782 8.79175 11.333Z" fill="#01C38E"/>
</svg>
