<svg width="40" height="40" viewBox="0 0 40 40" fill="none" xmlns="http://www.w3.org/2000/svg">
<rect width="40" height="40" rx="20" fill="#0E362B"/>
<path fill-rule="evenodd" clip-rule="evenodd" d="M18.2864 12.708H21.7138C23.2452 12.708 24.4583 12.708 25.4076 12.8356C26.3846 12.967 27.1754 13.2437 27.799 13.8674C28.4227 14.491 28.6994 15.2818 28.8308 16.2588C28.9062 16.8195 28.937 17.4723 28.9497 18.2282C28.9554 18.2623 28.9584 18.2973 28.9584 18.333C28.9584 18.3624 28.9564 18.3913 28.9525 18.4196C28.9584 18.891 28.9584 19.4012 28.9584 19.9527V19.9997C28.9584 20.3449 28.6786 20.6247 28.3334 20.6247C27.9882 20.6247 27.7084 20.3449 27.7084 19.9997C27.7084 19.6281 27.7083 19.2817 27.7068 18.958H12.2934C12.2918 19.2817 12.2917 19.6281 12.2917 19.9997C12.2917 21.5887 12.2931 22.7176 12.4082 23.574C12.5209 24.4124 12.7323 24.8954 13.085 25.2481C13.4377 25.6008 13.9207 25.8122 14.7591 25.9249C15.6155 26.04 16.7444 26.0413 18.3334 26.0413H21.6667C22.0119 26.0413 22.2917 26.3212 22.2917 26.6663C22.2917 27.0115 22.0119 27.2913 21.6667 27.2913H18.2864C16.7549 27.2914 15.5419 27.2914 14.5926 27.1637C13.6155 27.0324 12.8248 26.7556 12.2011 26.132C11.5775 25.5083 11.3007 24.7175 11.1694 23.7405C11.0417 22.7912 11.0417 21.5782 11.0417 20.0467V19.9527C11.0417 19.4012 11.0417 18.891 11.0477 18.4196C11.0438 18.3913 11.0417 18.3624 11.0417 18.333C11.0417 18.2973 11.0447 18.2623 11.0505 18.2283C11.0631 17.4723 11.094 16.8195 11.1694 16.2588C11.3007 15.2818 11.5775 14.491 12.2011 13.8674C12.8248 13.2437 13.6155 12.967 14.5926 12.8356C15.5419 12.708 16.7549 12.708 18.2864 12.708ZM12.3135 17.708H27.6867C27.6704 17.2191 27.6419 16.7966 27.5919 16.4254C27.4792 15.587 27.2678 15.1039 26.9152 14.7513C26.5625 14.3986 26.0794 14.1872 25.241 14.0745C24.3847 13.9593 23.2558 13.958 21.6667 13.958H18.3334C16.7444 13.958 15.6155 13.9593 14.7591 14.0745C13.9207 14.1872 13.4377 14.3986 13.085 14.7513C12.7323 15.1039 12.5209 15.587 12.4082 16.4254C12.3583 16.7966 12.3298 17.2191 12.3135 17.708ZM25.8334 21.0413C26.1786 21.0413 26.4584 21.3212 26.4584 21.6663V25.1575L27.0581 24.5577C27.3022 24.3137 27.6979 24.3137 27.942 24.5577C28.1861 24.8018 28.1861 25.1975 27.942 25.4416L26.2754 27.1083C26.0313 27.3524 25.6356 27.3524 25.3915 27.1083L23.7248 25.4416C23.4807 25.1975 23.4807 24.8018 23.7248 24.5577C23.9689 24.3137 24.3646 24.3137 24.6087 24.5577L25.2084 25.1575V21.6663C25.2084 21.3212 25.4882 21.0413 25.8334 21.0413ZM14.3751 23.333C14.3751 22.9878 14.6549 22.708 15.0001 22.708H18.3334C18.6786 22.708 18.9584 22.9878 18.9584 23.333C18.9584 23.6782 18.6786 23.958 18.3334 23.958H15.0001C14.6549 23.958 14.3751 23.6782 14.3751 23.333ZM19.7917 23.333C19.7917 22.9878 20.0716 22.708 20.4167 22.708H20.8334C21.1786 22.708 21.4584 22.9878 21.4584 23.333C21.4584 23.6782 21.1786 23.958 20.8334 23.958H20.4167C20.0716 23.958 19.7917 23.6782 19.7917 23.333Z" fill="#01C38E"/>
</svg>
