<svg width="20" height="20" viewBox="0 0 20 20" fill="none" xmlns="http://www.w3.org/2000/svg">
<path d="M8.35857 7.47467C8.1145 7.23059 7.71877 7.23059 7.47469 7.47467C7.23061 7.71875 7.23061 8.11448 7.47469 8.35855L9.11609 9.99996L7.47471 11.6413C7.23063 11.8854 7.23063 12.2811 7.47471 12.5252C7.71878 12.7693 8.11451 12.7693 8.35859 12.5252L9.99997 10.8838L11.6413 12.5252C11.8854 12.7693 12.2811 12.7693 12.5252 12.5252C12.7693 12.2811 12.7693 11.8854 12.5252 11.6413L10.8839 9.99996L12.5252 8.35857C12.7693 8.11449 12.7693 7.71877 12.5252 7.47469C12.2812 7.23061 11.8854 7.23061 11.6414 7.47469L9.99997 9.11607L8.35857 7.47467Z" fill="white"/>
<path fill-rule="evenodd" clip-rule="evenodd" d="M9.99999 1.04163C5.05244 1.04163 1.04166 5.05241 1.04166 9.99996C1.04166 14.9475 5.05244 18.9583 9.99999 18.9583C14.9475 18.9583 18.9583 14.9475 18.9583 9.99996C18.9583 5.05241 14.9475 1.04163 9.99999 1.04163ZM2.29166 9.99996C2.29166 5.74276 5.74279 2.29163 9.99999 2.29163C14.2572 2.29163 17.7083 5.74276 17.7083 9.99996C17.7083 14.2572 14.2572 17.7083 9.99999 17.7083C5.74279 17.7083 2.29166 14.2572 2.29166 9.99996Z" fill="white"/>
</svg>
