<svg width="26" height="26" viewBox="0 0 20 21" fill="none" xmlns="http://www.w3.org/2000/svg">
<rect x="0.217651" y="0.785156" width="19.4286" height="19.4286" rx="9.71428" fill="#01C38E"/>
<path fill-rule="evenodd" clip-rule="evenodd" d="M7.5759 6.52368C7.45638 6.52368 7.34196 6.57211 7.25876 6.65791L4.90275 9.08755C4.73291 9.2627 4.73721 9.54237 4.91236 9.71221C5.08751 9.88205 5.36717 9.87775 5.53701 9.7026L7.13414 8.05556L7.13414 14.0335C7.13414 14.2775 7.33192 14.4752 7.5759 14.4752C7.81987 14.4752 8.01765 14.2775 8.01765 14.0335L8.01765 8.05556L9.61478 9.7026C9.78462 9.87775 10.0643 9.88205 10.2394 9.71221C10.4146 9.54237 10.4189 9.2627 10.249 9.08755L7.89303 6.65791C7.80983 6.57211 7.69541 6.52368 7.5759 6.52368ZM12.2879 6.52368C12.044 6.52368 11.8462 6.72146 11.8462 6.96543L11.8462 12.9434L10.249 11.2963C10.0792 11.1212 9.79953 11.1169 9.62439 11.2867C9.44924 11.4565 9.44493 11.7362 9.61478 11.9114L11.9708 14.341C12.054 14.4268 12.1684 14.4752 12.2879 14.4752C12.4074 14.4752 12.5219 14.4268 12.6051 14.341L14.9611 11.9114C15.1309 11.7362 15.1266 11.4565 14.9515 11.2867C14.7763 11.1169 14.4966 11.1212 14.3268 11.2963L12.7297 12.9434L12.7297 6.96543C12.7297 6.72146 12.5319 6.52368 12.2879 6.52368Z" fill="#132D46"/>
</svg>
