<svg width="16" height="16" viewBox="0 0 16 16" fill="none" xmlns="http://www.w3.org/2000/svg">
<g clip-path="url(#clip0_36_3937)">
<path d="M8.00001 11.8334C8.27615 11.8334 8.50001 11.6095 8.50001 11.3334V7.33337C8.50001 7.05723 8.27615 6.83337 8.00001 6.83337C7.72387 6.83337 7.50001 7.05723 7.50001 7.33337V11.3334C7.50001 11.6095 7.72387 11.8334 8.00001 11.8334Z" fill="#01C38E"/>
<path d="M8.00001 4.66671C8.3682 4.66671 8.66668 4.96518 8.66668 5.33337C8.66668 5.70156 8.3682 6.00004 8.00001 6.00004C7.63182 6.00004 7.33334 5.70156 7.33334 5.33337C7.33334 4.96518 7.63182 4.66671 8.00001 4.66671Z" fill="#01C38E"/>
<path fill-rule="evenodd" clip-rule="evenodd" d="M0.833344 8.00004C0.833344 4.042 4.04197 0.833374 8.00001 0.833374C11.9581 0.833374 15.1667 4.042 15.1667 8.00004C15.1667 11.9581 11.9581 15.1667 8.00001 15.1667C4.04197 15.1667 0.833344 11.9581 0.833344 8.00004ZM8.00001 1.83337C4.59425 1.83337 1.83334 4.59428 1.83334 8.00004C1.83334 11.4058 4.59425 14.1667 8.00001 14.1667C11.4058 14.1667 14.1667 11.4058 14.1667 8.00004C14.1667 4.59428 11.4058 1.83337 8.00001 1.83337Z" fill="#01C38E"/>
</g>
<defs>
<clipPath id="clip0_36_3937">
<rect width="16" height="16" fill="white"/>
</clipPath>
</defs>
</svg>
