<svg width="390" height="844" viewBox="0 0 390 844" fill="none" xmlns="http://www.w3.org/2000/svg">
<g clip-path="url(#clip0_61_1286)">
<rect width="390" height="844" fill="#121212"/>
<path fill-rule="evenodd" clip-rule="evenodd" d="M221.211 367.667C216.626 365.411 211.023 364.283 204.4 364.283H180.056V428.011H195.885V427.62H195.359C195.105 427.62 194.862 427.519 194.682 427.34C194.503 427.16 194.402 426.917 194.402 426.663V391.75H188.663L200.141 380.272L211.62 391.75H205.881V419.193H207.238C212.478 419.193 216.881 418.393 220.447 416.792C224.086 415.118 226.961 412.934 229.071 410.242C231.254 407.549 232.819 404.565 233.765 401.29C234.784 397.942 235.294 394.631 235.294 391.356C235.294 385.825 234.093 381.058 231.691 377.056C229.29 372.98 225.796 369.851 221.211 367.667Z" fill="#01C38E"/>
<path fill-rule="evenodd" clip-rule="evenodd" d="M180.054 428.097H185.793L174.315 439.575L162.837 428.097H168.576V399.371H153.75V479.716H169.579V454.281H180.932C186.172 454.281 190.575 453.481 194.141 451.879C197.78 450.206 200.655 448.022 202.765 445.33C204.949 442.637 206.513 439.653 207.459 436.378C208.478 433.03 208.988 429.719 208.988 426.444C208.988 420.913 207.787 416.146 205.385 412.143C202.984 408.068 199.49 404.939 194.905 402.755C190.78 400.725 185.83 399.608 180.054 399.405V428.097Z" fill="#01C38E"/>
<path d="M450.148 -104.614C412.802 -91.9041 339.146 -36.5442 343.289 83.214C348.467 232.912 461.446 326.59 489.691 467.815C510.538 572.049 507.58 833.115 380.478 942.799" stroke="#01C38E" stroke-opacity="0.24" stroke-width="2"/>
<path d="M391.857 -92.5728C354.511 -79.8626 280.855 -24.5027 284.998 95.2555C290.176 244.953 403.155 338.632 431.4 479.856C452.247 584.09 449.289 845.156 322.187 954.84" stroke="white" stroke-opacity="0.12"/>
<path d="M332.92 -84.2607C295.574 -71.5506 221.918 -16.1907 226.06 103.568C231.238 253.265 344.218 346.944 372.463 488.168C393.31 592.402 390.351 853.468 263.249 963.152" stroke="#01C38E" stroke-opacity="0.24" stroke-width="2"/>
<path d="M273.522 -80.4258C236.176 -67.7156 162.52 -12.3557 166.663 107.402C171.841 257.1 284.82 350.779 313.065 492.003C333.912 596.237 330.953 857.303 203.852 966.987" stroke="white" stroke-opacity="0.12"/>
<path d="M214.021 -81.9863C176.676 -69.2761 103.019 -13.9162 107.162 105.842C112.34 255.54 225.319 349.218 253.564 490.443C274.411 594.677 271.453 855.743 144.351 965.427" stroke="#01C38E" stroke-opacity="0.24" stroke-width="2"/>
<path d="M154.868 -93.0127C117.522 -80.3025 43.8661 -24.9426 48.0087 94.8156C53.1869 244.513 166.166 338.192 194.411 479.416C215.258 583.65 212.3 844.716 85.1978 954.4" stroke="white" stroke-opacity="0.12"/>
<path d="M97.5879 -105.555C60.2419 -92.8445 -13.4144 -37.4846 -9.2718 82.2736C-4.09358 231.971 108.886 325.65 137.131 466.874C157.978 571.108 155.019 832.174 27.9173 941.859" stroke="#01C38E" stroke-opacity="0.24" stroke-width="2"/>
<path d="M33.1968 -133.659C-4.1492 -120.949 -77.8055 -65.5886 -73.6629 54.1696C-68.4847 203.867 44.4947 297.546 72.7396 438.77C93.5864 543.004 90.628 804.07 -36.4738 913.754" stroke="white" stroke-opacity="0.12"/>
<path d="M-21.9727 -156C-59.3186 -143.29 -132.975 -87.9299 -128.832 31.8283C-123.654 181.526 -10.6747 275.205 17.5702 416.429C38.417 520.663 35.4586 781.729 -91.6433 891.413" stroke="#01C38E" stroke-opacity="0.24" stroke-width="2"/>
</g>
<defs>
<clipPath id="clip0_61_1286">
<rect width="390" height="844" fill="white"/>
</clipPath>
</defs>
</svg>
