<svg width="20" height="20" viewBox="0 0 20 20" fill="none" xmlns="http://www.w3.org/2000/svg">
<rect width="20" height="20" rx="10" fill="#242424"/>
<path d="M16.0076 10.0155C16.0076 13.3335 13.3179 16.0233 9.99991 16.0233C6.68194 16.0233 3.99219 13.3335 3.99219 10.0155C3.99219 6.69756 6.68194 4.00781 9.99991 4.00781C13.3179 4.00781 16.0076 6.69756 16.0076 10.0155ZM5.7945 10.0155C5.7945 12.3381 7.67733 14.2209 9.99991 14.2209C12.3225 14.2209 14.2053 12.3381 14.2053 10.0155C14.2053 7.69295 12.3225 5.81013 9.99991 5.81013C7.67733 5.81013 5.7945 7.69295 5.7945 10.0155Z" fill="#585858"/>
<path d="M10.0001 4.90897C10.0001 4.41127 10.4058 4.00089 10.8979 4.07527C11.6965 4.19597 12.4657 4.47698 13.1581 4.90477C14.107 5.49115 14.874 6.33015 15.3731 7.32781C15.8721 8.32547 16.0836 9.44237 15.9837 10.5534C15.8838 11.6644 15.4766 12.7257 14.8076 13.6184C14.1386 14.5111 13.2343 15.1998 12.196 15.6076C11.1576 16.0153 10.0263 16.1259 8.92866 15.9269C7.83103 15.728 6.81046 15.2274 5.98128 14.4812C5.37634 13.9368 4.89071 13.2773 4.55068 12.5447C4.34116 12.0933 4.62116 11.5887 5.09884 11.449C5.57653 11.3093 6.06903 11.5903 6.30712 12.0274C6.53411 12.444 6.83102 12.8212 7.18692 13.1415C7.76735 13.6638 8.48175 14.0143 9.25009 14.1535C10.0184 14.2928 10.8104 14.2154 11.5372 13.93C12.264 13.6445 12.8971 13.1624 13.3653 12.5375C13.8336 11.9127 14.1187 11.1698 14.1886 10.392C14.2585 9.61432 14.1105 8.83249 13.7612 8.13413C13.4118 7.43577 12.875 6.84846 12.2107 6.438C11.8034 6.18632 11.358 6.00722 10.8944 5.90632C10.4081 5.80048 10.0001 5.40667 10.0001 4.90897Z" fill="white"/>
</svg>
