<svg width="12" height="18" viewBox="0 0 12 18" fill="none" xmlns="http://www.w3.org/2000/svg">
<path d="M11.902 4.52428L11.3054 6.62939H0.132102L0.728693 4.52428H11.902ZM6.46449 17.7856L0.362216 10.3794L0.34517 8.71746H3.37074C4.12642 8.71746 4.76563 8.60099 5.28835 8.36803C5.81108 8.13508 6.20881 7.79701 6.48153 7.35383C6.75426 6.90496 6.89062 6.35951 6.89062 5.71746C6.89062 4.76292 6.60653 4.00439 6.03835 3.44189C5.47017 2.87939 4.58097 2.59814 3.37074 2.59814H0.132102L0.754261 0.331099H3.37074C4.77983 0.331099 5.94176 0.555531 6.85653 1.00439C7.77131 1.45326 8.45313 2.07542 8.90199 2.87087C9.35085 3.66633 9.57528 4.58394 9.57528 5.62371C9.57528 6.54985 9.39063 7.38792 9.02131 8.13792C8.65199 8.88792 8.06392 9.49871 7.2571 9.9703C6.45028 10.4419 5.39062 10.7175 4.07812 10.797L4.00142 10.8141L9.57528 17.6408V17.7856H6.46449ZM11.9105 0.331099L11.3054 2.45326L2.37358 2.40212L2.97869 0.331099H11.9105Z" fill="white"/>
</svg>
