<svg width="21" height="20" viewBox="0 0 21 20" fill="none" xmlns="http://www.w3.org/2000/svg">
<path fill-rule="evenodd" clip-rule="evenodd" d="M8.7864 2.70801H12.2138C13.7452 2.70799 14.9583 2.70798 15.9076 2.83562C16.8846 2.96698 17.6754 3.24374 18.299 3.86738C18.9227 4.49101 19.1994 5.2818 19.3308 6.25882C19.4062 6.81955 19.437 7.47226 19.4497 8.22824C19.4554 8.2623 19.4584 8.29731 19.4584 8.33301C19.4584 8.36239 19.4564 8.39129 19.4525 8.41959C19.4584 8.89103 19.4584 9.4012 19.4584 9.95267V9.99968C19.4584 10.3449 19.1786 10.6247 18.8334 10.6247C18.4882 10.6247 18.2084 10.3449 18.2084 9.99968C18.2084 9.62809 18.2083 9.28167 18.2068 8.95801H2.7934C2.79182 9.28167 2.79175 9.62809 2.79175 9.99968C2.79175 11.5887 2.79308 12.7176 2.90821 13.574C3.02094 14.4124 3.23233 14.8954 3.585 15.2481C3.93768 15.6008 4.42071 15.8122 5.25912 15.9249C6.11551 16.04 7.2444 16.0413 8.83341 16.0413H12.1667C12.5119 16.0413 12.7917 16.3212 12.7917 16.6663C12.7917 17.0115 12.5119 17.2913 12.1667 17.2913H8.78641C7.25494 17.2914 6.04191 17.2914 5.09256 17.1637C4.11554 17.0324 3.32475 16.7556 2.70112 16.132C2.07748 15.5083 1.80072 14.7175 1.66936 13.7405C1.54172 12.7912 1.54174 11.5782 1.54175 10.0467V9.95266C1.54174 9.40119 1.54174 8.89102 1.54769 8.41957C1.54377 8.39128 1.54175 8.36238 1.54175 8.33301C1.54175 8.29731 1.54474 8.26231 1.55049 8.22825C1.56312 7.47226 1.59397 6.81955 1.66936 6.25882C1.80072 5.2818 2.07748 4.49101 2.70112 3.86738C3.32475 3.24374 4.11554 2.96698 5.09256 2.83562C6.04191 2.70798 7.25493 2.70799 8.7864 2.70801ZM2.81348 7.70801H18.1867C18.1704 7.21907 18.1419 6.79662 18.0919 6.42538C17.9792 5.58697 17.7678 5.10394 17.4152 4.75126C17.0625 4.39859 16.5794 4.18719 15.741 4.07447C14.8847 3.95934 13.7558 3.95801 12.1667 3.95801H8.83342C7.2444 3.95801 6.11551 3.95934 5.25912 4.07447C4.42071 4.18719 3.93768 4.39859 3.585 4.75126C3.23233 5.10394 3.02094 5.58697 2.90821 6.42538C2.8583 6.79662 2.82978 7.21907 2.81348 7.70801ZM15.8915 11.2244C16.1356 10.9803 16.5313 10.9803 16.7754 11.2244L18.442 12.8911C18.6861 13.1351 18.6861 13.5309 18.442 13.775C18.1979 14.019 17.8022 14.019 17.5581 13.775L16.9584 13.1752V16.6663C16.9584 17.0115 16.6786 17.2913 16.3334 17.2913C15.9882 17.2913 15.7084 17.0115 15.7084 16.6663V13.1752L15.1087 13.775C14.8646 14.019 14.4689 14.019 14.2248 13.775C13.9807 13.5309 13.9807 13.1351 14.2248 12.8911L15.8915 11.2244ZM4.87508 13.333C4.87508 12.9878 5.1549 12.708 5.50008 12.708H8.83342C9.17859 12.708 9.45842 12.9878 9.45842 13.333C9.45842 13.6782 9.17859 13.958 8.83342 13.958H5.50008C5.1549 13.958 4.87508 13.6782 4.87508 13.333ZM10.2917 13.333C10.2917 12.9878 10.5716 12.708 10.9167 12.708H11.3334C11.6786 12.708 11.9584 12.9878 11.9584 13.333C11.9584 13.6782 11.6786 13.958 11.3334 13.958H10.9167C10.5716 13.958 10.2917 13.6782 10.2917 13.333Z" fill="white"/>
</svg>
