<svg width="40" height="40" viewBox="0 0 40 40" fill="none" xmlns="http://www.w3.org/2000/svg">
<path d="M39.8915 20C39.8915 30.9875 30.9846 39.8947 19.9971 39.8947C9.0096 39.8947 0.102539 30.9875 0.102539 20C0.102539 9.01253 9.0096 0.105469 19.9971 0.105469C30.9845 0.105469 39.8915 9.01253 39.8915 20Z" fill="#FF4444" fill-opacity="0.12"/>
<path fill-rule="evenodd" clip-rule="evenodd" d="M17.7862 13.708H21.2135C22.745 13.708 23.958 13.708 24.9074 13.8356C25.8844 13.967 26.6752 14.2437 27.2988 14.8674C27.9224 15.491 28.1992 16.2818 28.3306 17.2588C28.4059 17.8195 28.4368 18.4723 28.4494 19.2282C28.4552 19.2623 28.4582 19.2973 28.4582 19.333C28.4582 19.3624 28.4561 19.3913 28.4522 19.4196C28.4582 19.891 28.4582 20.4012 28.4582 20.9527V20.9997C28.4582 21.3449 28.1783 21.6247 27.8332 21.6247C27.488 21.6247 27.2082 21.3449 27.2082 20.9997C27.2082 20.6281 27.2081 20.2817 27.2065 19.958H11.7932C11.7916 20.2817 11.7915 20.6281 11.7915 20.9997C11.7915 22.5887 11.7928 23.7176 11.908 24.574C12.0207 25.4124 12.2321 25.8954 12.5848 26.2481C12.9374 26.6008 13.4205 26.8122 14.2589 26.9249C15.1153 27.04 16.2442 27.0413 17.8332 27.0413H21.1665C21.5117 27.0413 21.7915 27.3212 21.7915 27.6663C21.7915 28.0115 21.5117 28.2913 21.1665 28.2913H17.7862C16.2547 28.2914 15.0417 28.2914 14.0923 28.1637C13.1153 28.0324 12.3245 27.7556 11.7009 27.132C11.0772 26.5083 10.8005 25.7175 10.6691 24.7405C10.5415 23.7912 10.5415 22.5782 10.5415 21.0467V20.9527C10.5415 20.4012 10.5415 19.891 10.5475 19.4196C10.5435 19.3913 10.5415 19.3624 10.5415 19.333C10.5415 19.2973 10.5445 19.2623 10.5502 19.2283C10.5629 18.4723 10.5937 17.8195 10.6691 17.2588C10.8005 16.2818 11.0772 15.491 11.7009 14.8674C12.3245 14.2437 13.1153 13.967 14.0923 13.8356C15.0417 13.708 16.2547 13.708 17.7862 13.708ZM11.8132 18.708H27.1864C27.1701 18.2191 27.1416 17.7966 27.0917 17.4254C26.979 16.587 26.7676 16.1039 26.4149 15.7513C26.0622 15.3986 25.5792 15.1872 24.7408 15.0745C23.8844 14.9593 22.7555 14.958 21.1665 14.958H17.8332C16.2442 14.958 15.1153 14.9593 14.2589 15.0745C13.4205 15.1872 12.9374 15.3986 12.5848 15.7513C12.2321 16.1039 12.0207 16.587 11.908 17.4254C11.8581 17.7966 11.8295 18.2191 11.8132 18.708ZM24.8912 22.2244C25.1353 21.9803 25.531 21.9803 25.7751 22.2244L27.4418 23.8911C27.6859 24.1351 27.6859 24.5309 27.4418 24.775C27.1977 25.019 26.802 25.019 26.5579 24.775L25.9582 24.1752V27.6663C25.9582 28.0115 25.6783 28.2913 25.3332 28.2913C24.988 28.2913 24.7082 28.0115 24.7082 27.6663V24.1752L24.1084 24.775C23.8644 25.019 23.4686 25.019 23.2246 24.775C22.9805 24.5309 22.9805 24.1351 23.2246 23.8911L24.8912 22.2244ZM13.8748 24.333C13.8748 23.9878 14.1547 23.708 14.4998 23.708H17.8332C18.1783 23.708 18.4582 23.9878 18.4582 24.333C18.4582 24.6782 18.1783 24.958 17.8332 24.958H14.4998C14.1547 24.958 13.8748 24.6782 13.8748 24.333ZM19.2915 24.333C19.2915 23.9878 19.5713 23.708 19.9165 23.708H20.3332C20.6783 23.708 20.9582 23.9878 20.9582 24.333C20.9582 24.6782 20.6783 24.958 20.3332 24.958H19.9165C19.5713 24.958 19.2915 24.6782 19.2915 24.333Z" fill="#FF4444"/>
</svg>
