<svg width="20" height="26" viewBox="0 0 20 29" fill="none" xmlns="http://www.w3.org/2000/svg">
<path fill-rule="evenodd" clip-rule="evenodd" d="M16.3542 1.50789C15.2427 0.960964 13.8842 0.6875 12.2787 0.6875H6.3772V16.1368H10.2145V16.042H10.0871C10.0256 16.042 9.96663 16.0175 9.92315 15.9741C9.87966 15.9306 9.85523 15.8716 9.85523 15.8101V7.34632H8.46392L11.2465 4.56372L14.0291 7.34632H12.6378V13.999H12.9668C14.2371 13.999 15.3045 13.8049 16.169 13.4168C17.0511 13.011 17.748 12.4817 18.2596 11.8289C18.7889 11.1762 19.1683 10.4528 19.3976 9.65888C19.6446 8.84731 19.7681 8.04456 19.7681 7.25063C19.7681 5.90978 19.477 4.75417 18.8948 3.78382C18.3126 2.79582 17.4657 2.03718 16.3542 1.50789Z" fill="#01C38E"/>
<path fill-rule="evenodd" clip-rule="evenodd" d="M6.37692 16.1573H7.76823L4.98562 18.9399L2.20301 16.1573H3.59431V9.19385H0V28.6715H3.83732V22.5054H6.5896C7.85988 22.5054 8.92727 22.3113 9.79177 21.9232C10.6739 21.5174 11.3708 20.9881 11.8824 20.3353C12.4117 19.6825 12.7911 18.9592 13.0204 18.1652C13.2674 17.3537 13.3909 16.5509 13.3909 15.757C13.3909 14.4161 13.0998 13.2605 12.5176 12.2902C11.9354 11.3022 11.0885 10.5435 9.97702 10.0142C8.97695 9.52214 7.77692 9.25142 6.37692 9.20209V16.1573Z" fill="#01C38E"/>
</svg>
