<svg width="16" height="16" viewBox="0 0 24 25" fill="none" xmlns="http://www.w3.org/2000/svg">
<path d="M23.9349 12.3716C23.9349 18.9642 18.5908 24.3085 11.9983 24.3085C5.40576 24.3085 0.0615234 18.9642 0.0615234 12.3716C0.0615234 5.77918 5.40576 0.434937 11.9983 0.434937C18.5907 0.434937 23.9349 5.77918 23.9349 12.3716" fill="#2C2C2C"/>
<path d="M10.7742 12.1626V10.0744H7.94189V8.2439H15.8566V10.1001H13.0242V12.1626H10.7742Z" fill="#696969"/>
<path fill-rule="evenodd" clip-rule="evenodd" d="M6.72424 12.3946C6.72424 11.6985 9.00071 11.1313 11.8331 11.1313C14.6654 11.1313 16.9419 11.6985 16.9419 12.3946C16.9419 13.0907 14.6654 13.6579 11.8331 13.6579C9.00071 13.6579 6.72424 13.0907 6.72424 12.3946ZM16.5184 12.3946C16.3331 12.1368 14.7978 11.3376 11.8331 11.3376C8.86836 11.3376 7.33307 12.111 7.14777 12.3946C7.33307 12.6524 8.86836 13.0392 11.8331 13.0392C14.8242 13.0392 16.3331 12.6524 16.5184 12.3946Z" fill="#696969"/>
<path d="M13.0243 12.8072V11.3635C12.6537 11.3377 12.2567 11.3119 11.8596 11.3119C11.489 11.3119 11.1449 11.3119 10.8008 11.3377V12.7814C11.1184 12.7814 11.489 12.8072 11.8596 12.8072C12.2567 12.833 12.6537 12.833 13.0243 12.8072Z" fill="#696969"/>
<path d="M11.8331 13.658C11.4625 13.658 11.1184 13.658 10.7743 13.6322V17.4736H12.9978V13.6064C12.6272 13.6322 12.2302 13.658 11.8331 13.658Z" fill="#696969"/>
</svg>
