<svg width="14" height="12" viewBox="0 0 14 12" fill="none" xmlns="http://www.w3.org/2000/svg">
<path d="M5.26562 5.09497V2.37989H1.58313V0H11.8735V2.41341H8.19096V5.09497H5.26562Z" fill="white"/>
<path fill-rule="evenodd" clip-rule="evenodd" d="M0 5.39691C0 4.49189 2.95976 3.75446 6.64225 3.75446C10.3247 3.75446 13.2845 4.49189 13.2845 5.39691C13.2845 6.30194 10.3247 7.03937 6.64225 7.03937C2.95976 7.03937 0 6.30194 0 5.39691ZM12.7338 5.39671C12.4929 5.06151 10.4968 4.02241 6.64225 4.02241C2.78768 4.02241 0.791564 5.02799 0.550653 5.39671C0.791564 5.73191 2.78768 6.2347 6.64225 6.2347C10.5312 6.2347 12.4929 5.73191 12.7338 5.39671Z" fill="white"/>
<path d="M8.19098 5.93278V4.05569C7.70915 4.02217 7.19292 3.98865 6.67668 3.98865C6.19486 3.98865 5.74745 3.98865 5.30005 4.02217V5.89926C5.71304 5.89926 6.19486 5.93278 6.67668 5.93278C7.19292 5.9663 7.70915 5.9663 8.19098 5.93278Z" fill="white"/>
<path d="M6.64226 7.03878C6.16044 7.03878 5.71303 7.03878 5.26562 7.00526V11.9997H8.15655V6.97174C7.67473 7.00526 7.15849 7.03878 6.64226 7.03878Z" fill="white"/>
</svg>
