<svg width="11" height="11" viewBox="0 0 11 11" fill="none" xmlns="http://www.w3.org/2000/svg">
<path d="M4.05 4.80388V2.7156H1.21765V0.885132H9.13236V2.74138H6.3V4.80388H4.05Z" fill="#6E6E6E"/>
<path fill-rule="evenodd" clip-rule="evenodd" d="M0 5.03593C0 4.33983 2.27647 3.77264 5.10882 3.77264C7.94118 3.77264 10.2176 4.33983 10.2176 5.03593C10.2176 5.73202 7.94118 6.29921 5.10882 6.29921C2.27647 6.29921 0 5.73202 0 5.03593ZM9.79412 5.03592C9.60882 4.77811 8.07353 3.97889 5.10882 3.97889C2.14412 3.97889 0.608824 4.75233 0.42353 5.03592C0.608824 5.29374 2.14412 5.68046 5.10882 5.68046C8.1 5.68046 9.60882 5.29374 9.79412 5.03592Z" fill="#6E6E6E"/>
<path d="M6.30007 5.44844V4.00469C5.92948 3.97891 5.53242 3.95312 5.13536 3.95312C4.76477 3.95312 4.42066 3.95312 4.07654 3.97891V5.42266C4.39419 5.42266 4.76477 5.44844 5.13536 5.44844C5.53242 5.47422 5.92948 5.47422 6.30007 5.44844Z" fill="#6E6E6E"/>
<path d="M5.10887 6.29924C4.73828 6.29924 4.39417 6.29924 4.05005 6.27346V10.1149H6.27358V6.24768C5.90299 6.27346 5.50593 6.29924 5.10887 6.29924Z" fill="#6E6E6E"/>
</svg>
