<svg width="44" height="45" viewBox="0 0 44 45" fill="none" xmlns="http://www.w3.org/2000/svg">
<rect y="0.371582" width="44" height="44" rx="22" fill="white" fill-opacity="0.06"/>
<path fill-rule="evenodd" clip-rule="evenodd" d="M29.4362 22.1634C29.4193 22.1633 29.3971 22.1632 29.3611 22.1632H27.1923C26.0061 22.1632 25.125 23.0455 25.125 24.0382C25.125 25.031 26.0061 25.9132 27.1923 25.9132H29.3611C29.3971 25.9132 29.4193 25.9132 29.4362 25.9131C29.4522 25.9129 29.4566 25.9126 29.4566 25.9126C29.6283 25.9022 29.7022 25.7862 29.7078 25.7165C29.7078 25.7165 29.708 25.7113 29.7081 25.7037C29.7083 25.6889 29.7083 25.6692 29.7083 25.6355V22.441C29.7083 22.4223 29.7083 22.408 29.7083 22.3963C29.7082 22.387 29.7082 22.3794 29.7081 22.3728C29.708 22.3652 29.7078 22.36 29.7078 22.36C29.7022 22.2903 29.6283 22.1743 29.4566 22.1639C29.4566 22.1639 29.4525 22.1636 29.4362 22.1634ZM29.3749 20.9132C29.4302 20.9132 29.4835 20.9132 29.5325 20.9162C30.2587 20.9604 30.9008 21.5081 30.9548 22.2731C30.9584 22.3232 30.9583 22.3773 30.9583 22.4274C30.9583 22.432 30.9583 22.4365 30.9583 22.441V25.6355C30.9583 25.64 30.9583 25.6445 30.9583 25.6491C30.9583 25.6992 30.9584 25.7533 30.9548 25.8034C30.9008 26.5684 30.2587 27.1161 29.5325 27.1603C29.4835 27.1633 29.4302 27.1633 29.3749 27.1633C29.3703 27.1633 29.3657 27.1632 29.3611 27.1632H27.1923C25.4046 27.1632 23.875 25.807 23.875 24.0382C23.875 22.2695 25.4046 20.9132 27.1923 20.9132H29.3611C29.3657 20.9132 29.3703 20.9132 29.3749 20.9132Z" fill="#989898"/>
<path d="M27.8333 24.0382C27.8333 24.4985 27.4602 24.8716 27 24.8716C26.5397 24.8716 26.1666 24.4985 26.1666 24.0382C26.1666 23.578 26.5397 23.2049 27 23.2049C27.4602 23.2049 27.8333 23.578 27.8333 24.0382Z" fill="#989898"/>
<path fill-rule="evenodd" clip-rule="evenodd" d="M29.3749 20.9132C29.4302 20.9132 29.4835 20.9132 29.5325 20.9162C29.7204 20.9276 29.9026 20.9728 30.0705 21.0466C29.9814 19.7079 29.7359 18.6763 28.9656 17.906C28.342 17.2823 27.5512 17.0056 26.5741 16.8742L26.5389 16.8695C26.5302 16.8631 26.5212 16.8568 26.512 16.8507L23.3991 14.7866C22.3131 14.0666 20.8534 14.0666 19.7675 14.7866L16.6546 16.8507C16.6454 16.8568 16.6364 16.8631 16.6277 16.8695L16.5924 16.8742C15.6154 17.0056 14.8246 17.2823 14.201 17.906C13.5774 18.5296 13.3006 19.3204 13.1692 20.2974C13.0416 21.2467 13.0416 22.4598 13.0416 23.9912V24.0853C13.0416 25.6167 13.0416 26.8298 13.1692 27.7791C13.3006 28.7561 13.5774 29.5469 14.201 30.1705C14.8246 30.7942 15.6154 31.0709 16.5924 31.2023C17.5418 31.3299 18.7548 31.3299 20.2863 31.3299H22.8803C24.4118 31.3299 25.6248 31.3299 26.5741 31.2023C27.5512 31.0709 28.342 30.7942 28.9656 30.1705C29.7359 29.4002 29.9814 28.3686 30.0705 27.0299C29.9026 27.1037 29.7204 27.1489 29.5325 27.1603C29.4835 27.1633 29.4302 27.1633 29.3749 27.1633L29.3611 27.1632H28.8066C28.7117 28.2811 28.4971 28.8712 28.0817 29.2867C27.729 29.6393 27.246 29.8507 26.4076 29.9635C25.5512 30.0786 24.4223 30.0799 22.8333 30.0799H20.3333C18.7443 30.0799 17.6154 30.0786 16.759 29.9635C15.9206 29.8507 15.4376 29.6393 15.0849 29.2867C14.7322 28.934 14.5208 28.451 14.4081 27.6125C14.293 26.7562 14.2916 25.6273 14.2916 24.0382C14.2916 22.4492 14.293 21.3203 14.4081 20.464C14.5208 19.6255 14.7322 19.1425 15.0849 18.7898C15.4376 18.4372 15.9206 18.2258 16.759 18.113C17.6154 17.9979 18.7443 17.9966 20.3333 17.9966H22.8333C24.4223 17.9966 25.5512 17.9979 26.4076 18.113C27.246 18.2258 27.729 18.4372 28.0817 18.7898C28.4971 19.2053 28.7117 19.7954 28.8066 20.9132H29.3611L29.3749 20.9132ZM20.2863 16.7466H22.8803C23.3107 16.7466 23.716 16.7466 24.0973 16.7494L22.7083 15.8284C22.041 15.386 21.1255 15.386 20.4583 15.8284L19.0693 16.7494C19.4506 16.7466 19.8559 16.7466 20.2863 16.7466Z" fill="#989898"/>
<path d="M17 20.0799C16.6548 20.0799 16.375 20.3597 16.375 20.7049C16.375 21.0501 16.6548 21.3299 17 21.3299H20.3333C20.6785 21.3299 20.9583 21.0501 20.9583 20.7049C20.9583 20.3597 20.6785 20.0799 20.3333 20.0799H17Z" fill="#989898"/>
<path fill-rule="evenodd" clip-rule="evenodd" d="M27.8333 24.0382C27.8333 24.4985 27.4602 24.8716 27 24.8716C26.5397 24.8716 26.1666 24.4985 26.1666 24.0382C26.1666 23.578 26.5397 23.2049 27 23.2049C27.4602 23.2049 27.8333 23.578 27.8333 24.0382Z" fill="#989898"/>
</svg>
